<svg width="38" height="40" viewBox="0 0 38 40" fill="none" xmlns="http://www.w3.org/2000/svg">
<path d="M7.00024 7.79395V37.3338C7.00024 38.8066 8.19413 40.0005 9.66688 40.0005H35.0004C36.4732 40.0005 37.667 38.8066 37.667 37.3338V7.79395H7.00024Z" fill="#F9F5F3"/>
<path d="M35.8173 7.79395V37.3338C35.8173 38.8066 34.6234 40.0005 33.1506 40.0005H35.0017C36.4745 40.0005 37.6684 38.8066 37.6684 37.3338V7.79395H35.8173Z" fill="#F9EAE0"/>
<path d="M16.5375 31.1L6.13089 20.6934L2.35962 24.4646L12.7662 34.8712C12.8315 34.9366 12.9102 34.9871 12.9967 35.0193C13.0679 35.0459 13.1457 34.9827 13.2231 34.9827L13.7962 35.0598L16.7261 32.13L16.4646 31.6057C16.4647 31.4349 16.6583 31.2207 16.5375 31.1Z" fill="#A0C8FF"/>
<path d="M16.5375 31.1L6.1309 20.6934L5.20727 21.617L15.9764 32.3861C16.0639 32.4737 16.1242 32.5848 16.1501 32.7059L16.7261 32.13L16.6306 31.567C16.6306 31.4889 16.7119 31.4006 16.6849 31.3289C16.6527 31.2429 16.6025 31.1648 16.5375 31.1Z" fill="#91B2FA"/>
<path d="M17.6689 36.6053C17.5896 36.6054 17.511 36.5899 17.4378 36.5595C17.3645 36.5292 17.298 36.4847 17.2421 36.4285L15.0872 34.2736C14.974 34.1604 14.9104 34.0069 14.9104 33.8468C14.9104 33.6867 14.974 33.5332 15.0872 33.42C15.2004 33.3068 15.3539 33.2432 15.514 33.2432C15.6741 33.2432 15.8277 33.3068 15.9409 33.42L18.0957 35.5748C18.2089 35.688 18.2725 35.8415 18.2725 36.0016C18.2725 36.1617 18.2089 36.3152 18.0957 36.4284C18.0397 36.4846 17.9732 36.5291 17.9 36.5595C17.8267 36.5898 17.7482 36.6054 17.6689 36.6053Z" fill="#868EAF"/>
<path d="M4.0647 23.252L4.91822 22.3984L15.2639 32.7442L14.4104 33.5977L4.0647 23.252Z" fill="#91B2FA"/>
<path d="M16.7262 34.4151V31.5544C16.7259 31.4774 16.7119 31.4011 16.6847 31.3291L12.9963 35.0175C13.0683 35.0447 13.1446 35.0587 13.2216 35.0589H16.0823C16.2531 35.0589 16.4168 34.9911 16.5376 34.8703C16.6583 34.7496 16.7262 34.5858 16.7262 34.4151Z" fill="#F9EAE0"/>
<path d="M2.60845 19.0556L0.722818 20.9412C0.202093 21.4619 0.202093 22.3061 0.722818 22.8268L2.60845 24.7125L6.37972 20.9412L4.49408 19.0556C3.97336 18.5349 3.1291 18.5349 2.60845 19.0556Z" fill="#FA8EBB"/>
<path d="M2.6272 19.0378C2.63347 19.0438 2.64023 19.049 2.64635 19.0551L5.45561 21.8643L6.37923 20.9407L4.49359 19.0551C3.97907 18.5405 3.14921 18.5354 2.6272 19.0378Z" fill="#F57FB0"/>
<path d="M33.0017 13.9367H11.6683C11.5082 13.9367 11.3547 13.8731 11.2415 13.7599C11.1283 13.6467 11.0647 13.4932 11.0647 13.3331C11.0647 13.173 11.1283 13.0195 11.2415 12.9063C11.3547 12.7931 11.5082 12.7295 11.6683 12.7295H33.0017C33.1618 12.7295 33.3153 12.7931 33.4285 12.9063C33.5417 13.0195 33.6053 13.173 33.6053 13.3331C33.6053 13.4932 33.5417 13.6467 33.4285 13.7599C33.3153 13.8731 33.1618 13.9367 33.0017 13.9367ZM33.0017 17.9367H11.6683C11.5082 17.9367 11.3547 17.8731 11.2415 17.7599C11.1283 17.6467 11.0647 17.4932 11.0647 17.3331C11.0647 17.173 11.1283 17.0195 11.2415 16.9063C11.3547 16.7931 11.5082 16.7295 11.6683 16.7295H33.0017C33.1618 16.7295 33.3153 16.7931 33.4285 16.9063C33.5417 17.0195 33.6053 17.173 33.6053 17.3331C33.6053 17.4932 33.5417 17.6467 33.4285 17.7599C33.3153 17.8731 33.1618 17.9367 33.0017 17.9367ZM33.0017 21.9367H11.6683C11.5082 21.9367 11.3547 21.8731 11.2415 21.7599C11.1283 21.6467 11.0647 21.4932 11.0647 21.3331C11.0647 21.173 11.1283 21.0195 11.2415 20.9063C11.3547 20.7931 11.5082 20.7295 11.6683 20.7295H33.0017C33.1618 20.7295 33.3153 20.7931 33.4285 20.9063C33.5417 21.0195 33.6053 21.173 33.6053 21.3331C33.6053 21.4932 33.5417 21.6467 33.4285 21.7599C33.3153 21.8731 33.1618 21.9367 33.0017 21.9367ZM33.0017 25.9367H11.6683C11.5082 25.9367 11.3547 25.8731 11.2415 25.7599C11.1283 25.6467 11.0647 25.4932 11.0647 25.3331C11.0647 25.173 11.1283 25.0195 11.2415 24.9063C11.3547 24.7931 11.5082 24.7295 11.6683 24.7295H33.0017C33.1618 24.7295 33.3153 24.7931 33.4285 24.9063C33.5417 25.0195 33.6053 25.173 33.6053 25.3331C33.6053 25.4932 33.5417 25.6467 33.4285 25.7599C33.3153 25.8731 33.1618 25.9367 33.0017 25.9367ZM33.0017 29.9367H19.0017C18.8416 29.9367 18.6881 29.8731 18.5749 29.7599C18.4617 29.6467 18.3981 29.4932 18.3981 29.3331C18.3981 29.173 18.4617 29.0195 18.5749 28.9063C18.6881 28.7931 18.8416 28.7295 19.0017 28.7295H33.0017C33.1618 28.7295 33.3153 28.7931 33.4285 28.9063C33.5417 29.0195 33.6053 29.173 33.6053 29.3331C33.6053 29.4932 33.5417 29.6467 33.4285 29.7599C33.3153 29.8731 33.1618 29.9367 33.0017 29.9367Z" fill="#868EAF"/>
<path d="M35.0004 2.66699H9.66688C8.19413 2.66699 7.00024 3.86088 7.00024 5.33363V9.33371H37.667V5.33355C37.667 3.86088 36.4732 2.66699 35.0004 2.66699Z" fill="#FFCE69"/>
<path d="M35.0017 2.66699H33.1506C34.6234 2.66699 35.8173 3.86088 35.8173 5.33363V9.33371H37.6684V5.33355C37.6684 3.86088 36.4745 2.66699 35.0017 2.66699Z" fill="#FFBD61"/>
<path d="M11.0002 4C11.0002 4.73642 11.5972 5.33336 12.3336 5.33336C13.07 5.33336 13.667 4.73642 13.667 4V1.33336C13.667 0.596942 13.0699 0 12.3336 0C11.5972 0 11.0002 0.596942 11.0002 1.33336V4ZM31.0002 4C31.0002 4.73642 31.5972 5.33336 32.3336 5.33336C33.07 5.33336 33.667 4.73642 33.667 4V1.33336C33.667 0.596942 33.07 0 32.3336 0C31.5972 0 31.0002 0.596942 31.0002 1.33336V4ZM17.6669 4C17.6669 4.73642 18.2638 5.33336 19.0002 5.33336C19.7367 5.33336 20.3336 4.73642 20.3336 4V1.33336C20.3336 0.596942 19.7367 0 19.0002 0C18.2638 0 17.6669 0.596942 17.6669 1.33336V4ZM24.3336 4C24.3336 4.73642 24.9305 5.33336 25.667 5.33336C26.4034 5.33336 27.0003 4.73642 27.0003 4V1.33336C27.0003 0.596942 26.4034 0 25.667 0C24.9305 0 24.3336 0.596942 24.3336 1.33336V4Z" fill="#BDD3DD"/>
<path d="M32.334 3.04168e-07C31.9742 3.04168e-07 31.6483 0.143179 31.4084 0.374809C31.6595 0.617304 31.8163 0.956781 31.8163 1.33336V4C31.8163 4.37658 31.6595 4.71606 31.4084 4.95855C31.6565 5.19913 31.9885 5.33358 32.334 5.33336C33.0704 5.33336 33.6674 4.73642 33.6674 4V1.33336C33.6674 0.596942 33.0704 3.04168e-07 32.334 3.04168e-07ZM25.6674 3.04168e-07C25.3218 -0.000233404 24.9898 0.134219 24.7418 0.374809C24.9928 0.617304 25.1496 0.956781 25.1496 1.33336V4C25.1496 4.37658 24.9928 4.71606 24.7418 4.95855C24.9898 5.19914 25.3218 5.33359 25.6674 5.33336C26.4038 5.33336 27.0007 4.73642 27.0007 4V1.33336C27.0007 0.596942 26.4037 3.04168e-07 25.6674 3.04168e-07ZM19.0006 3.04168e-07C18.6409 3.04168e-07 18.3149 0.143179 18.0751 0.374809C18.3261 0.617304 18.4829 0.956781 18.4829 1.33336V4C18.4829 4.37658 18.3261 4.71606 18.0751 4.95855C18.3231 5.19913 18.6551 5.33358 19.0006 5.33336C19.7371 5.33336 20.334 4.73642 20.334 4V1.33336C20.334 0.596942 19.7371 3.04168e-07 19.0006 3.04168e-07ZM12.334 3.04168e-07C11.9742 3.04168e-07 11.6483 0.143179 11.4084 0.374809C11.6595 0.617304 11.8163 0.956781 11.8163 1.33336V4C11.8163 4.37658 11.6595 4.71606 11.4084 4.95855C11.6565 5.19913 11.9885 5.33358 12.334 5.33336C13.0704 5.33336 13.6674 4.73642 13.6674 4V1.33336C13.6674 0.596942 13.0704 3.04168e-07 12.334 3.04168e-07Z" fill="#ABC4D6"/>
</svg>
